<svg xmlns="http://www.w3.org/2000/svg" viewBox="0 0 32 32">
  <style>
    .tile { fill: #0e0e0e; }
    .mark { fill: #f7f7f5; }
    @media (prefers-color-scheme: dark) {
      .tile { fill: #f2f2f0; }
      .mark { fill: #0e0e0e; }
    }
  </style>
  <rect class="tile" width="32" height="32" rx="7"/>
  <g class="mark" transform="translate(6 21.6) scale(0.019 -0.019)"><path d="M383.19921875 0 374.799072265625 82.5989990234375V310.60009765625Q374.799072265625 358.799560546875 345.89923095703125 383.399169921875Q316.9993896484375 407.998779296875 265 407.998779296875Q225.4000244140625 407.998779296875 186.7998046875 392.298828125Q148.1995849609375 376.598876953125 116.399658203125 344.79931640625L54.1995849609375 418.400634765625Q102.4000244140625 462.8004150390625 156.40008544921875 482.500244140625Q210.400146484375 502.2000732421875 273.8001708984375 502.2000732421875Q374.0003662109375 502.2000732421875 429.60052490234375 451.60003662109375Q485.20068359375 401 485.20068359375 310.60009765625V0ZM229.7998046875 -9.2000732421875Q174.9998779296875 -9.2000732421875 132.6998291015625 10.699951171875Q90.3997802734375 30.5999755859375 66.69970703125 66.800048828125Q42.9996337890625 103.0001220703125 42.9996337890625 150.6002197265625Q42.9996337890625 192.4002685546875 60.2996826171875 222.30035400390625Q77.5997314453125 252.200439453125 105.599853515625 268.6004638671875Q130.3997802734375 284.0003662109375 162.09967041015625 290.30035400390625Q193.799560546875 296.600341796875 229.199462890625 296.600341796875H384.399169921875V213.7991943359375H245.19970703125Q227.199951171875 213.7991943359375 209.00030517578125 210.5992431640625Q190.8006591796875 207.3992919921875 177.200927734375 197.5994873046875Q166.60107421875 189.599609375 160.50115966796875 177.59979248046875Q154.4012451171875 165.5999755859375 154.4012451171875 150.000244140625Q154.4012451171875 118.20068359375 178.80096435546875 99.40093994140625Q203.20068359375 80.6011962890625 244.2001953125 80.6011962890625Q279.9998779296875 80.6011962890625 309.4996337890625 96.60101318359375Q338.9993896484375 112.600830078125 356.89923095703125 140.70050048828125Q374.799072265625 168.8001708984375 374.799072265625 204.3997802734375L408.5989990234375 148.798583984375Q397.398681640625 96.5986328125 371.19866943359375 61.198974609375Q344.9986572265625 25.79931640625 308.89892578125 8.29962158203125Q272.7991943359375 -9.2000732421875 229.7998046875 -9.2000732421875Z"/></g>
  <rect class="mark" x="17" y="19.4" width="8.4" height="2.6" rx="1.3"/>
</svg>
