<svg width="1920" height="1080" viewBox="0 0 1920 1080" xmlns="http://www.w3.org/2000/svg">
  <defs>
    
  </defs>

  <rect width="1920" height="1080" fill="#FDF7E7"></rect>

  
  <text x="72" y="82" font-size="12" font-weight="700" fill="#3517CA" letter-spacing="3">RECOMMENDATIONS</text>
  <text x="72" y="130" font-size="44" font-weight="900" fill="#000">Prioritization &amp; Next Steps</text>

  
  <rect x="72" y="168" width="570" height="340" rx="14" fill="#fff" stroke="#adf086" stroke-width="2"></rect>
  <rect x="72" y="168" width="570" height="52" rx="14" fill="#adf086"></rect>
  <rect x="72" y="196" width="570" height="24" fill="#adf086"></rect>
  <text x="357" y="202" font-size="18" font-weight="800" fill="#000" text-anchor="middle">HIGH IMPACT / LOW EFFORT</text>

  <rect x="96" y="236" width="16" height="16" rx="4" fill="#adf086"></rect>
  <text x="124" y="252" font-size="18" font-weight="600" fill="#000">Centralized event feed aggregating</text>
  <text x="124" y="276" font-size="18" font-weight="600" fill="#000">Vancouver design events from multiple sources</text>

  <rect x="96" y="300" width="16" height="16" rx="4" fill="#adf086"></rect>
  <text x="124" y="316" font-size="18" font-weight="600" fill="#000">Post-event attendee list with save</text>
  <text x="124" y="340" font-size="18" font-weight="600" fill="#000">and note functionality</text>

  <rect x="96" y="364" width="16" height="16" rx="4" fill="#adf086"></rect>
  <text x="124" y="380" font-size="18" font-weight="600" fill="#000">Beginner-friendly filters so new designers</text>
  <text x="124" y="404" font-size="18" font-weight="600" fill="#000">can identify approachable events</text>

  
  <rect x="440" y="468" width="180" height="28" rx="8" fill="rgba(173,240,134,0.4)"></rect>
  <text x="530" y="488" font-size="14" font-weight="800" fill="#3d8c1a" text-anchor="middle">START HERE</text>

  
  <rect x="672" y="168" width="570" height="340" rx="14" fill="#fff" stroke="#3517CA" stroke-width="2"></rect>
  <rect x="672" y="168" width="570" height="52" rx="14" fill="#3517CA"></rect>
  <rect x="672" y="196" width="570" height="24" fill="#3517CA"></rect>
  <text x="957" y="202" font-size="18" font-weight="800" fill="#fff" text-anchor="middle">HIGH IMPACT / HIGH EFFORT</text>

  <rect x="696" y="236" width="16" height="16" rx="4" fill="#3517CA"></rect>
  <text x="724" y="252" font-size="18" font-weight="600" fill="#000">Connection tracker with follow-up</text>
  <text x="724" y="276" font-size="18" font-weight="600" fill="#000">reminders and relationship timeline</text>

  <rect x="696" y="300" width="16" height="16" rx="4" fill="#3517CA"></rect>
  <text x="724" y="316" font-size="18" font-weight="600" fill="#000">Community space with moderated,</text>
  <text x="724" y="340" font-size="18" font-weight="600" fill="#000">low-stakes sharing environment</text>

  <rect x="696" y="364" width="16" height="16" rx="4" fill="#3517CA"></rect>
  <text x="724" y="380" font-size="18" font-weight="600" fill="#000">Organizer tools for targeted audience</text>
  <text x="724" y="404" font-size="18" font-weight="600" fill="#000">reach by career stage and discipline</text>

  
  <rect x="1040" y="468" width="180" height="28" rx="8" fill="rgba(53,23,202,0.1)"></rect>
  <text x="1130" y="488" font-size="14" font-weight="800" fill="#3517CA" text-anchor="middle">PHASE 2</text>

  
  <rect x="1272" y="168" width="580" height="200" rx="14" fill="#fff" stroke="#E5DFD0" stroke-width="1.5"></rect>
  <rect x="1272" y="168" width="580" height="52" rx="14" fill="#E5DFD0"></rect>
  <rect x="1272" y="196" width="580" height="24" fill="#E5DFD0"></rect>
  <text x="1562" y="202" font-size="18" font-weight="800" fill="#5A5548" text-anchor="middle">LOWER PRIORITY</text>

  <rect x="1296" y="236" width="16" height="16" rx="4" fill="#E5DFD0"></rect>
  <text x="1324" y="252" font-size="18" font-weight="600" fill="#000">Verified profile system</text>
  <text x="1324" y="276" font-size="16" font-weight="500" fill="#5A5548">Only 21% cited as trust driver</text>

  <rect x="1296" y="300" width="16" height="16" rx="4" fill="#E5DFD0"></rect>
  <text x="1324" y="316" font-size="18" font-weight="600" fill="#000">Job board</text>
  <text x="1324" y="340" font-size="16" font-weight="500" fill="#5A5548">Valuable but secondary to core community need</text>

  
  <rect x="1670" y="330" width="160" height="28" rx="8" fill="rgba(0,0,0,0.04)"></rect>
  <text x="1750" y="350" font-size="14" font-weight="800" fill="#888" text-anchor="middle">FUTURE</text>

  
  <rect x="72" y="548" width="1780" height="310" rx="14" fill="#fff" stroke="#E5DFD0" stroke-width="1.5"></rect>
  <text x="96" y="588" font-size="13" font-weight="800" fill="#3517CA" letter-spacing="2">NEXT STEPS</text>

  
  <rect x="96" y="612" width="44" height="44" rx="22" fill="#3517CA"></rect>
  <text x="118" y="642" font-size="22" font-weight="900" fill="#fff" text-anchor="middle">1</text>
  <text x="156" y="630" font-size="18" font-weight="700" fill="#000">Validate proto personas</text>
  <text x="156" y="654" font-size="16" font-weight="500" fill="#5A5548">5–8 user interviews with designers matching each persona type</text>

  
  <rect x="96" y="672" width="44" height="44" rx="22" fill="#3517CA"></rect>
  <text x="118" y="702" font-size="22" font-weight="900" fill="#fff" text-anchor="middle">2</text>
  <text x="156" y="690" font-size="18" font-weight="700" fill="#000">Build low-fidelity prototypes</text>
  <text x="156" y="714" font-size="16" font-weight="500" fill="#5A5548">Three concepts ready for usability testing</text>

  
  <rect x="96" y="732" width="44" height="44" rx="22" fill="#3517CA"></rect>
  <text x="118" y="762" font-size="22" font-weight="900" fill="#fff" text-anchor="middle">3</text>
  <text x="156" y="750" font-size="18" font-weight="700" fill="#000">Conduct preference testing</text>
  <text x="156" y="774" font-size="16" font-weight="500" fill="#5A5548">Determine which concept resonates most strongly with users</text>

  
  <rect x="960" y="612" width="44" height="44" rx="22" fill="#adf086"></rect>
  <text x="982" y="642" font-size="22" font-weight="900" fill="#000" text-anchor="middle">4</text>
  <text x="1020" y="630" font-size="18" font-weight="700" fill="#000">Partner with organizers</text>
  <text x="1020" y="654" font-size="16" font-weight="500" fill="#5A5548">2–3 Vancouver design event organizers for pilot launch</text>

  
  <rect x="960" y="672" width="44" height="44" rx="22" fill="#adf086"></rect>
  <text x="982" y="702" font-size="22" font-weight="900" fill="#000" text-anchor="middle">5</text>
  <text x="1020" y="690" font-size="18" font-weight="700" fill="#000">Expand survey</text>
  <text x="1020" y="714" font-size="16" font-weight="500" fill="#5A5548">50+ respondents for statistical significance</text>

  
  <text x="72" y="1060" font-size="12" fill="#888" letter-spacing="1">DESIGNHERE — UX RESEARCH</text>
  <text x="1660" y="1060" font-size="12" fill="#888" letter-spacing="1">RECOMMENDATIONS &amp; NEXT STEPS</text>
</svg>