<svg width="1920" height="1080" viewBox="0 0 1920 1080" xmlns="http://www.w3.org/2000/svg">
  <defs>
    
  </defs>

  <rect width="1920" height="1080" fill="#FDF7E7"></rect>

  
  <text x="72" y="82" font-size="12" font-weight="700" fill="#3517CA" letter-spacing="3">SURVEY DATA</text>
  <text x="72" y="128" font-size="40" font-weight="900" fill="#000">Who Responded</text>

  
  <rect x="72" y="160" width="570" height="520" rx="14" fill="#fff" stroke="#E5DFD0" stroke-width="1.5"></rect>
  <text x="96" y="196" font-size="15" font-weight="700" fill="#000">What stage are you currently at?</text>

  
  <circle cx="220" cy="360" r="80" fill="none" stroke="#3517CA" stroke-width="28" stroke-dasharray="143.2 360" stroke-dashoffset="0" transform="rotate(-90 220 360)"></circle>
  <circle cx="220" cy="360" r="80" fill="none" stroke="#adf086" stroke-width="28" stroke-dasharray="143.2 360" stroke-dashoffset="-143.2" transform="rotate(-90 220 360)"></circle>
  <circle cx="220" cy="360" r="80" fill="none" stroke="#E53535" stroke-width="28" stroke-dasharray="107.4 396" stroke-dashoffset="-286.4" transform="rotate(-90 220 360)"></circle>
  <circle cx="220" cy="360" r="80" fill="none" stroke="#F97316" stroke-width="28" stroke-dasharray="71.6 432" stroke-dashoffset="-393.8" transform="rotate(-90 220 360)"></circle>
  <circle cx="220" cy="360" r="80" fill="none" stroke="#7BC85E" stroke-width="28" stroke-dasharray="35.8 467.4" stroke-dashoffset="-465.4" transform="rotate(-90 220 360)"></circle>
  <text x="220" y="355" font-size="28" font-weight="900" fill="#000" text-anchor="middle">14</text>
  <text x="220" y="375" font-size="11" font-weight="600" fill="#5A5548" text-anchor="middle" letter-spacing="1">TOTAL</text>

  
  <rect x="340" y="280" width="12" height="12" rx="3" fill="#3517CA"></rect>
  <text x="360" y="292" font-size="14" fill="#000">Student</text>
  <text x="560" y="292" font-size="14" font-weight="700" fill="#5A5548">4</text>

  <rect x="340" y="308" width="12" height="12" rx="3" fill="#adf086"></rect>
  <text x="360" y="320" font-size="14" fill="#000">Early career (2–5 yrs)</text>
  <text x="560" y="320" font-size="14" font-weight="700" fill="#5A5548">4</text>

  <rect x="340" y="336" width="12" height="12" rx="3" fill="#E53535"></rect>
  <text x="360" y="348" font-size="14" fill="#000">Recent graduate</text>
  <text x="560" y="348" font-size="14" font-weight="700" fill="#5A5548">3</text>

  <rect x="340" y="364" width="12" height="12" rx="3" fill="#F97316"></rect>
  <text x="360" y="376" font-size="14" fill="#000">Freelancer</text>
  <text x="560" y="376" font-size="14" font-weight="700" fill="#5A5548">2</text>

  <rect x="340" y="392" width="12" height="12" rx="3" fill="#7BC85E"></rect>
  <text x="360" y="404" font-size="14" fill="#000">Senior</text>
  <text x="560" y="404" font-size="14" font-weight="700" fill="#5A5548">1</text>

  
  <rect x="672" y="160" width="570" height="520" rx="14" fill="#fff" stroke="#E5DFD0" stroke-width="1.5"></rect>
  <text x="696" y="196" font-size="15" font-weight="700" fill="#000">Which platform do you use most?</text>

  
  <text x="860" y="246" font-size="13" fill="#000" text-anchor="end">LinkedIn</text>
  <rect x="870" y="230" width="310" height="24" rx="5" fill="#EDE8D8"></rect>
  <rect x="870" y="230" width="310" height="24" rx="5" fill="#3517CA"></rect>
  <text x="886" y="248" font-size="12" font-weight="700" fill="#fff">71%</text>
  <text x="1194" y="248" font-size="13" font-weight="600" fill="#5A5548">10</text>

  <text x="860" y="284" font-size="13" fill="#000" text-anchor="end">Discord / Slack</text>
  <rect x="870" y="268" width="310" height="24" rx="5" fill="#EDE8D8"></rect>
  <rect x="870" y="268" width="31" height="24" rx="5" fill="#3517CA"></rect>
  <text x="1194" y="286" font-size="13" font-weight="600" fill="#5A5548">1</text>

  <text x="860" y="322" font-size="13" fill="#000" text-anchor="end">Behance / Dribbble</text>
  <rect x="870" y="306" width="310" height="24" rx="5" fill="#EDE8D8"></rect>
  <rect x="870" y="306" width="31" height="24" rx="5" fill="#3517CA"></rect>
  <text x="1194" y="324" font-size="13" font-weight="600" fill="#5A5548">1</text>

  <text x="860" y="360" font-size="13" fill="#000" text-anchor="end">Instagram</text>
  <rect x="870" y="344" width="310" height="24" rx="5" fill="#EDE8D8"></rect>
  <rect x="870" y="344" width="31" height="24" rx="5" fill="#3517CA"></rect>
  <text x="1194" y="362" font-size="13" font-weight="600" fill="#5A5548">1</text>

  <text x="860" y="398" font-size="13" fill="#000" text-anchor="end">None</text>
  <rect x="870" y="382" width="310" height="24" rx="5" fill="#EDE8D8"></rect>
  <rect x="870" y="382" width="31" height="24" rx="5" fill="#3517CA"></rect>
  <text x="1194" y="400" font-size="13" font-weight="600" fill="#5A5548">1</text>

  
  <rect x="696" y="440" width="522" height="90" rx="12" fill="rgba(53,23,202,0.06)" stroke="rgba(53,23,202,0.12)" stroke-width="1"></rect>
  <text x="957" y="478" font-size="40" font-weight="900" fill="#3517CA" text-anchor="middle">71%</text>
  <text x="957" y="510" font-size="14" font-weight="600" fill="#000" text-anchor="middle">Use LinkedIn — but it doesn&#39;t serve local community needs</text>

  
  <rect x="1272" y="160" width="580" height="520" rx="14" fill="#fff" stroke="#E5DFD0" stroke-width="1.5"></rect>
  <text x="1296" y="196" font-size="15" font-weight="700" fill="#000">How often do you attend industry events?</text>

  
  <circle cx="1420" cy="360" r="80" fill="none" stroke="#3517CA" stroke-width="28" stroke-dasharray="215 288" stroke-dashoffset="0" transform="rotate(-90 1420 360)"></circle>
  <circle cx="1420" cy="360" r="80" fill="none" stroke="#adf086" stroke-width="28" stroke-dasharray="215 288" stroke-dashoffset="-215" transform="rotate(-90 1420 360)"></circle>
  <circle cx="1420" cy="360" r="80" fill="none" stroke="#E53535" stroke-width="28" stroke-dasharray="72 432" stroke-dashoffset="-430" transform="rotate(-90 1420 360)"></circle>
  <text x="1420" y="355" font-size="28" font-weight="900" fill="#000" text-anchor="middle">14</text>
  <text x="1420" y="375" font-size="11" font-weight="600" fill="#5A5548" text-anchor="middle" letter-spacing="1">TOTAL</text>

  
  <rect x="1540" y="300" width="12" height="12" rx="3" fill="#3517CA"></rect>
  <text x="1560" y="312" font-size="14" fill="#000">~Once a month</text>
  <text x="1790" y="312" font-size="14" font-weight="700" fill="#5A5548">6</text>

  <rect x="1540" y="328" width="12" height="12" rx="3" fill="#adf086"></rect>
  <text x="1560" y="340" font-size="14" fill="#000">Less than 3x/yr</text>
  <text x="1790" y="340" font-size="14" font-weight="700" fill="#5A5548">6</text>

  <rect x="1540" y="356" width="12" height="12" rx="3" fill="#E53535"></rect>
  <text x="1560" y="368" font-size="14" fill="#000">No fixed pattern</text>
  <text x="1790" y="368" font-size="14" font-weight="700" fill="#5A5548">2</text>

  
  <rect x="1296" y="440" width="532" height="90" rx="12" fill="rgba(53,23,202,0.06)" stroke="rgba(53,23,202,0.12)" stroke-width="1"></rect>
  <text x="1562" y="478" font-size="40" font-weight="900" fill="#3517CA" text-anchor="middle">86%</text>
  <text x="1562" y="510" font-size="14" font-weight="600" fill="#000" text-anchor="middle">Attend events monthly or less</text>

  
  <text x="72" y="1060" font-size="12" fill="#888" letter-spacing="1">DESIGNHERE — UX RESEARCH</text>
  <text x="1760" y="1060" font-size="12" fill="#888" letter-spacing="1">SURVEY DATA 1/3</text>
</svg>