<svg width="1920" height="1080" viewBox="0 0 1920 1080" xmlns="http://www.w3.org/2000/svg">
  <defs>
    
  </defs>

  <rect width="1920" height="1080" fill="#FDF7E7"></rect>

  <text x="72" y="82" font-size="12" font-weight="700" fill="#3517CA" letter-spacing="3">SURVEY DATA</text>
  <text x="72" y="128" font-size="40" font-weight="900" fill="#000">What Designers Want</text>

  
  <rect x="72" y="160" width="570" height="480" rx="14" fill="#fff" stroke="#E5DFD0" stroke-width="1.5"></rect>
  <text x="96" y="196" font-size="15" font-weight="700" fill="#000">Would you use a centralized platform if it could…</text>

  <text x="260" y="248" font-size="13" fill="#000" text-anchor="end">Track relationships</text>
  <rect x="270" y="232" width="310" height="26" rx="5" fill="#EDE8D8"></rect>
  <rect x="270" y="232" width="310" height="26" rx="5" fill="#3517CA"></rect>
  <text x="286" y="252" font-size="12" font-weight="700" fill="#fff">71%</text>
  <text x="594" y="252" font-size="13" font-weight="600" fill="#5A5548">10</text>

  <text x="260" y="288" font-size="13" fill="#000" text-anchor="end">Recommend people</text>
  <rect x="270" y="272" width="310" height="26" rx="5" fill="#EDE8D8"></rect>
  <rect x="270" y="272" width="217" height="26" rx="5" fill="#3517CA"></rect>
  <text x="286" y="292" font-size="12" font-weight="700" fill="#fff">50%</text>
  <text x="594" y="292" font-size="13" font-weight="600" fill="#5A5548">7</text>

  <text x="260" y="328" font-size="13" fill="#000" text-anchor="end">Curate local events</text>
  <rect x="270" y="312" width="310" height="26" rx="5" fill="#EDE8D8"></rect>
  <rect x="270" y="312" width="217" height="26" rx="5" fill="#3517CA"></rect>
  <text x="286" y="332" font-size="12" font-weight="700" fill="#fff">50%</text>
  <text x="594" y="332" font-size="13" font-weight="600" fill="#5A5548">7</text>

  <text x="260" y="368" font-size="13" fill="#000" text-anchor="end">Show mutual interests</text>
  <rect x="270" y="352" width="310" height="26" rx="5" fill="#EDE8D8"></rect>
  <rect x="270" y="352" width="217" height="26" rx="5" fill="#3517CA"></rect>
  <text x="286" y="372" font-size="12" font-weight="700" fill="#fff">50%</text>
  <text x="594" y="372" font-size="13" font-weight="600" fill="#5A5548">7</text>

  
  <rect x="96" y="410" width="522" height="90" rx="12" fill="rgba(53,23,202,0.06)" stroke="rgba(53,23,202,0.12)" stroke-width="1"></rect>
  <text x="357" y="450" font-size="40" font-weight="900" fill="#3517CA" text-anchor="middle">71%</text>
  <text x="357" y="480" font-size="14" font-weight="600" fill="#000" text-anchor="middle">Want help maintaining relationships — #1 feature ask</text>

  
  <rect x="672" y="160" width="570" height="340" rx="14" fill="#fff" stroke="#E5DFD0" stroke-width="1.5"></rect>
  <text x="696" y="196" font-size="15" font-weight="700" fill="#000">What would make you trust a platform?</text>

  <text x="870" y="248" font-size="13" fill="#000" text-anchor="end">Moderation &amp; transparency</text>
  <rect x="880" y="232" width="300" height="26" rx="5" fill="#EDE8D8"></rect>
  <rect x="880" y="232" width="300" height="26" rx="5" fill="#adf086"></rect>
  <text x="896" y="252" font-size="12" font-weight="700" fill="#000">7</text>
  <text x="1194" y="252" font-size="13" font-weight="600" fill="#5A5548">7</text>

  <text x="870" y="288" font-size="13" fill="#000" text-anchor="end">Verified profiles</text>
  <rect x="880" y="272" width="300" height="26" rx="5" fill="#EDE8D8"></rect>
  <rect x="880" y="272" width="129" height="26" rx="5" fill="#adf086"></rect>
  <text x="896" y="292" font-size="12" font-weight="700" fill="#000">3</text>
  <text x="1194" y="292" font-size="13" font-weight="600" fill="#5A5548">3</text>

  <text x="870" y="328" font-size="13" fill="#000" text-anchor="end">Event integration</text>
  <rect x="880" y="312" width="300" height="26" rx="5" fill="#EDE8D8"></rect>
  <rect x="880" y="312" width="86" height="26" rx="5" fill="#adf086"></rect>
  <text x="1194" y="332" font-size="13" font-weight="600" fill="#5A5548">2</text>

  <text x="870" y="368" font-size="13" fill="#000" text-anchor="end">Mutual connections</text>
  <rect x="880" y="352" width="300" height="26" rx="5" fill="#EDE8D8"></rect>
  <rect x="880" y="352" width="86" height="26" rx="5" fill="#adf086"></rect>
  <text x="1194" y="372" font-size="13" font-weight="600" fill="#5A5548">2</text>

  
  <rect x="1272" y="160" width="580" height="340" rx="14" fill="#fff" stroke="#E5DFD0" stroke-width="1.5"></rect>
  <text x="1296" y="196" font-size="15" font-weight="700" fill="#000">What would keep you actively using a platform?</text>

  <text x="1470" y="248" font-size="13" fill="#000" text-anchor="end">Curated events</text>
  <rect x="1480" y="232" width="310" height="26" rx="5" fill="#EDE8D8"></rect>
  <rect x="1480" y="232" width="310" height="26" rx="5" fill="#F97316"></rect>
  <text x="1496" y="252" font-size="12" font-weight="700" fill="#fff">6</text>
  <text x="1804" y="252" font-size="13" font-weight="600" fill="#5A5548">6</text>

  <text x="1470" y="288" font-size="13" fill="#000" text-anchor="end">Job / freelance opps</text>
  <rect x="1480" y="272" width="310" height="26" rx="5" fill="#EDE8D8"></rect>
  <rect x="1480" y="272" width="258" height="26" rx="5" fill="#F97316"></rect>
  <text x="1496" y="292" font-size="12" font-weight="700" fill="#fff">5</text>
  <text x="1804" y="292" font-size="13" font-weight="600" fill="#5A5548">5</text>

  <text x="1470" y="328" font-size="13" fill="#000" text-anchor="end">Relationship growth</text>
  <rect x="1480" y="312" width="310" height="26" rx="5" fill="#EDE8D8"></rect>
  <rect x="1480" y="312" width="103" height="26" rx="5" fill="#F97316"></rect>
  <text x="1804" y="332" font-size="13" font-weight="600" fill="#5A5548">2</text>

  <text x="1470" y="368" font-size="13" fill="#000" text-anchor="end">Discussions</text>
  <rect x="1480" y="352" width="310" height="26" rx="5" fill="#EDE8D8"></rect>
  <rect x="1480" y="352" width="52" height="26" rx="5" fill="#F97316"></rect>
  <text x="1804" y="372" font-size="13" font-weight="600" fill="#5A5548">1</text>

  
  <rect x="672" y="530" width="570" height="120" rx="12" fill="#3517CA"></rect>
  <text x="696" y="568" font-size="14" font-weight="600" fill="#fff" font-style="italic">&#34;Having to look in 10 different places to find one small</text>
  <text x="696" y="590" font-size="14" font-weight="600" fill="#fff" font-style="italic">thing. There&#39;s no one cohesive platform.&#34;</text>
  <text x="696" y="626" font-size="12" font-weight="500" fill="rgba(255,255,255,0.6)">— Student</text>

  <rect x="1272" y="530" width="580" height="120" rx="12" fill="#3517CA"></rect>
  <text x="1296" y="568" font-size="14" font-weight="600" fill="#fff" font-style="italic">&#34;A welcoming, low-stakes environment to showcase work.</text>
  <text x="1296" y="590" font-size="14" font-weight="600" fill="#fff" font-style="italic">I always have to show my best since everyone is watching.&#34;</text>
  <text x="1296" y="626" font-size="12" font-weight="500" fill="rgba(255,255,255,0.6)">— Student</text>

  
  <text x="72" y="1060" font-size="12" fill="#888" letter-spacing="1">DESIGNHERE — UX RESEARCH</text>
  <text x="1760" y="1060" font-size="12" fill="#888" letter-spacing="1">SURVEY DATA 3/3</text>
</svg>