<svg width="1920" height="1080" viewBox="0 0 1920 1080" xmlns="http://www.w3.org/2000/svg">
  <defs>
    
  </defs>

  <rect width="1920" height="1080" fill="#FDF7E7"></rect>

  <text x="72" y="82" font-size="12" font-weight="700" fill="#3517CA" letter-spacing="3">SURVEY DATA</text>
  <text x="72" y="128" font-size="40" font-weight="900" fill="#000">Discovery &amp; Challenges</text>

  
  <rect x="72" y="160" width="570" height="440" rx="14" fill="#fff" stroke="#E5DFD0" stroke-width="1.5"></rect>
  <text x="96" y="196" font-size="15" font-weight="700" fill="#000">How do you mainly find industry connections?</text>

  <text x="260" y="244" font-size="13" fill="#000" text-anchor="end">Social platforms</text>
  <rect x="270" y="228" width="310" height="26" rx="5" fill="#EDE8D8"></rect>
  <rect x="270" y="228" width="310" height="26" rx="5" fill="#adf086"></rect>
  <text x="286" y="248" font-size="12" font-weight="700" fill="#000">8</text>
  <text x="594" y="248" font-size="13" font-weight="600" fill="#5A5548">8</text>

  <text x="260" y="284" font-size="13" fill="#000" text-anchor="end">School / Professors</text>
  <rect x="270" y="268" width="310" height="26" rx="5" fill="#EDE8D8"></rect>
  <rect x="270" y="268" width="310" height="26" rx="5" fill="#adf086"></rect>
  <text x="286" y="288" font-size="12" font-weight="700" fill="#000">8</text>
  <text x="594" y="288" font-size="13" font-weight="600" fill="#5A5548">8</text>

  <text x="260" y="324" font-size="13" fill="#000" text-anchor="end">In-person events</text>
  <rect x="270" y="308" width="310" height="26" rx="5" fill="#EDE8D8"></rect>
  <rect x="270" y="308" width="270" height="26" rx="5" fill="#adf086"></rect>
  <text x="286" y="328" font-size="12" font-weight="700" fill="#000">7</text>
  <text x="594" y="328" font-size="13" font-weight="600" fill="#5A5548">7</text>

  <text x="260" y="364" font-size="13" fill="#000" text-anchor="end">Online communities</text>
  <rect x="270" y="348" width="310" height="26" rx="5" fill="#EDE8D8"></rect>
  <rect x="270" y="348" width="78" height="26" rx="5" fill="#adf086"></rect>
  <text x="594" y="368" font-size="13" font-weight="600" fill="#5A5548">2</text>

  <text x="260" y="404" font-size="13" fill="#000" text-anchor="end">Don&#39;t network</text>
  <rect x="270" y="388" width="310" height="26" rx="5" fill="#EDE8D8"></rect>
  <rect x="270" y="388" width="78" height="26" rx="5" fill="#adf086"></rect>
  <text x="594" y="408" font-size="13" font-weight="600" fill="#5A5548">2</text>

  
  <rect x="672" y="160" width="570" height="440" rx="14" fill="#fff" stroke="#E5DFD0" stroke-width="1.5"></rect>
  <text x="696" y="196" font-size="15" font-weight="700" fill="#000">Biggest challenge networking in Vancouver?</text>

  <text x="870" y="250" font-size="13" fill="#000" text-anchor="end">Maintain relationships</text>
  <rect x="880" y="234" width="300" height="26" rx="5" fill="#EDE8D8"></rect>
  <rect x="880" y="234" width="300" height="26" rx="5" fill="#E53535"></rect>
  <text x="896" y="254" font-size="12" font-weight="700" fill="#fff">64%</text>
  <text x="1194" y="254" font-size="13" font-weight="600" fill="#5A5548">9</text>

  <text x="870" y="290" font-size="13" fill="#000" text-anchor="end">Find people / events</text>
  <rect x="880" y="274" width="300" height="26" rx="5" fill="#EDE8D8"></rect>
  <rect x="880" y="274" width="100" height="26" rx="5" fill="#E53535"></rect>
  <text x="896" y="294" font-size="12" font-weight="700" fill="#fff">21%</text>
  <text x="1194" y="294" font-size="13" font-weight="600" fill="#5A5548">3</text>

  <text x="870" y="330" font-size="13" fill="#000" text-anchor="end">Don&#39;t know where to start</text>
  <rect x="880" y="314" width="300" height="26" rx="5" fill="#EDE8D8"></rect>
  <rect x="880" y="314" width="33" height="26" rx="5" fill="#E53535"></rect>
  <text x="1194" y="334" font-size="13" font-weight="600" fill="#5A5548">1</text>

  <text x="870" y="370" font-size="13" fill="#000" text-anchor="end">Networking quality</text>
  <rect x="880" y="354" width="300" height="26" rx="5" fill="#EDE8D8"></rect>
  <rect x="880" y="354" width="33" height="26" rx="5" fill="#E53535"></rect>
  <text x="1194" y="374" font-size="13" font-weight="600" fill="#5A5548">1</text>

  
  <rect x="696" y="410" width="522" height="100" rx="12" fill="rgba(229,53,53,0.06)" stroke="rgba(229,53,53,0.12)" stroke-width="1"></rect>
  <text x="957" y="450" font-size="44" font-weight="900" fill="#E53535" text-anchor="middle">9 of 14</text>
  <text x="957" y="478" font-size="15" font-weight="600" fill="#000" text-anchor="middle">Say maintaining relationships is harder than finding them</text>
  <text x="957" y="498" font-size="13" font-weight="500" fill="#5A5548" text-anchor="middle">The problem isn&#39;t connection. It&#39;s continuity.</text>

  
  <rect x="1272" y="160" width="580" height="440" rx="14" fill="#fff" stroke="#E5DFD0" stroke-width="1.5"></rect>
  <text x="1296" y="196" font-size="15" font-weight="700" fill="#000">What value have you gained from networking?</text>

  <text x="1470" y="250" font-size="13" fill="#000" text-anchor="end">Friendships</text>
  <rect x="1480" y="234" width="310" height="26" rx="5" fill="#EDE8D8"></rect>
  <rect x="1480" y="234" width="310" height="26" rx="5" fill="#3517CA"></rect>
  <text x="1496" y="254" font-size="12" font-weight="700" fill="#fff">12</text>
  <text x="1804" y="254" font-size="13" font-weight="600" fill="#5A5548">12</text>

  <text x="1470" y="290" font-size="13" fill="#000" text-anchor="end">Inspiration</text>
  <rect x="1480" y="274" width="310" height="26" rx="5" fill="#EDE8D8"></rect>
  <rect x="1480" y="274" width="258" height="26" rx="5" fill="#3517CA"></rect>
  <text x="1496" y="294" font-size="12" font-weight="700" fill="#fff">10</text>
  <text x="1804" y="294" font-size="13" font-weight="600" fill="#5A5548">10</text>

  <text x="1470" y="330" font-size="13" fill="#000" text-anchor="end">Industry trends</text>
  <rect x="1480" y="314" width="310" height="26" rx="5" fill="#EDE8D8"></rect>
  <rect x="1480" y="314" width="232" height="26" rx="5" fill="#3517CA"></rect>
  <text x="1496" y="334" font-size="12" font-weight="700" fill="#fff">9</text>
  <text x="1804" y="334" font-size="13" font-weight="600" fill="#5A5548">9</text>

  <text x="1470" y="370" font-size="13" fill="#000" text-anchor="end">Career opps</text>
  <rect x="1480" y="354" width="310" height="26" rx="5" fill="#EDE8D8"></rect>
  <rect x="1480" y="354" width="232" height="26" rx="5" fill="#3517CA"></rect>
  <text x="1496" y="374" font-size="12" font-weight="700" fill="#fff">9</text>
  <text x="1804" y="374" font-size="13" font-weight="600" fill="#5A5548">9</text>

  <text x="1470" y="410" font-size="13" fill="#000" text-anchor="end">Client / collab</text>
  <rect x="1480" y="394" width="310" height="26" rx="5" fill="#EDE8D8"></rect>
  <rect x="1480" y="394" width="103" height="26" rx="5" fill="#3517CA"></rect>
  <text x="1496" y="414" font-size="12" font-weight="700" fill="#fff">4</text>
  <text x="1804" y="414" font-size="13" font-weight="600" fill="#5A5548">4</text>

  
  <text x="72" y="1060" font-size="12" fill="#888" letter-spacing="1">DESIGNHERE — UX RESEARCH</text>
  <text x="1760" y="1060" font-size="12" fill="#888" letter-spacing="1">SURVEY DATA 2/3</text>
</svg>